<?xml version="1.0" encoding="utf-8"?>
<!-- Generator: Adobe Illustrator 24.3.0, SVG Export Plug-In . SVG Version: 6.00 Build 0)  -->
<svg version="1.1" id="Layer_1" focusable="false" xmlns="http://www.w3.org/2000/svg" xmlns:xlink="http://www.w3.org/1999/xlink"
	 x="0px" y="0px" viewBox="0 0 500 500" style="enable-background:new 0 0 500 500;" xml:space="preserve">
<style type="text/css">
	.st0{fill:#FFFFFF;}
</style>
<path class="st0" d="M3,2v496h494V2H3z M271.8,388.8c0,48.3-28.2,70.3-69.4,70.3c-37.2,0-58.7-19.3-69.7-42.6l37.8-22.9
	c7.3,13,13.9,23.9,29.9,23.9c15.2,0,24.9-6,24.9-29.3V229.7h46.4L271.8,388.8L271.8,388.8z M381.7,459.1c-43.1,0-71-20.6-84.6-47.6
	l37.8-21.9c9.9,16.3,22.9,28.3,45.8,28.3c19.2,0,31.5-9.6,31.5-23c0-15.9-12.6-21.6-33.9-31l-11.6-5c-33.5-14.3-55.7-32.3-55.7-70.3
	c0-35,26.6-61.6,67.9-61.6c29.6,0,50.7,10.3,65.9,37.3l-36.2,23.2c-7.9-14.3-16.5-19.9-29.9-19.9c-13.6,0-22.2,8.6-22.2,19.9
	c0,14,8.6,19.6,28.6,28.3l11.6,5c39.5,16.9,61.6,34.3,61.6,73.3C458.5,436.1,425.7,459.1,381.7,459.1L381.7,459.1z"/>
</svg>
