<?xml version="1.0" encoding="utf-8"?>
<!-- Generator: Adobe Illustrator 24.3.0, SVG Export Plug-In . SVG Version: 6.00 Build 0)  -->
<svg version="1.1" id="Layer_1" xmlns="http://www.w3.org/2000/svg" xmlns:xlink="http://www.w3.org/1999/xlink" x="0px" y="0px"
	 viewBox="0 0 453 512" style="enable-background:new 0 0 453 512;" xml:space="preserve">
<style type="text/css">
	.st0{fill:#FD1015;}
</style>
<g transform="translate(-3.000000, -6.000000)">
	<path id="Shape" class="st0" d="M23.1,268.7c2.8-8.8,6.1-26.6,13.9-42.4c37.8-76.3,96.3-131.8,174.4-165.5
		c15.1-6.5,33-8.6,49.7-8.7c20.8-0.1,34.8,14.4,36.6,35.4c1,10.9,0.8,23.1-2.9,33.1c-37,99-106.8,165.2-205,202.5
		c-3.8,1.4-8.1,1.8-12.2,2.4C44.1,330.1,22.6,311.2,23.1,268.7L23.1,268.7L23.1,268.7z M280,195.4c54.3-3.8,107.6-7.5,163.5-11.5
		c-4.1-3.9-6.4-6.4-9-8.6c-48.7-39-97.4-77.9-145.9-117.1c-4.8-3.9-7.8-10-14.2-18.5c20.8,0,37.7-0.2,54.5,0
		c20.3,0.3,41.1-1.7,60.9,2c42.7,7.9,65.5,35.4,64.7,78.8c-0.7,40.7-4.9,81.3-8,121.9c-4.6,62.2-9.4,124.4-14.2,186.5
		c-0.8,10.7-1.8,21.4-2.9,34.2c-22.6-20.1-44.2-39.3-65.7-58.5c-2.8-2.5-5.1-5.7-8.2-7.7c-26.3-16.8-37.3-41.8-43.3-71.7
		c-7.8-39.1-19.3-77.4-29.1-116.1C281.9,204.9,281.1,200.5,280,195.4L280,195.4L280,195.4z M76.5,433.1c11.6-1.6,22.5-2.3,32.8-5
		c4.1-1,8.8-6,10.1-10.2c9.8-30.9,18.7-62,28-93.1c0.8-2.7,1.9-5.3,3.4-9.4c56.5,18.1,112.6,36,170.3,54.5
		c-30,30.3-62,55.7-97.7,78.6c63.6,4.9,127.2,9.7,190.9,14.6c0,0.8,0,1.6,0,2.4c-13.7,1-27.4,2-41.1,2.9
		c-80.9,5.3-161.8,10.6-242.7,15.9c-12.9,0.8-25.7,2.3-38.6,2c-54.5-1-85.3-30.8-86-85.5c-0.4-30.7,2.8-61.4,4.7-92.1
		c0.1-2.3,3.5-4.4,5.3-6.6c2.7,2.4,6.7,4.4,8.1,7.4C40.2,347.3,56.1,385.2,72,423C73.3,426,74.7,429,76.5,433.1L76.5,433.1
		L76.5,433.1z"/>
</g>
</svg>
