<?xml version="1.0" encoding="utf-8"?>
<!-- Generator: Adobe Illustrator 24.3.0, SVG Export Plug-In . SVG Version: 6.00 Build 0)  -->
<svg version="1.1" id="Layer_1" xmlns="http://www.w3.org/2000/svg" xmlns:xlink="http://www.w3.org/1999/xlink" x="0px" y="0px"
	 viewBox="0 0 500 500" style="enable-background:new 0 0 500 500;" xml:space="preserve">
<style type="text/css">
	.st0{fill:#FFFFFF;}
</style>
<g transform="translate(-3.000000, -6.000000)">
	<path id="Shape" class="st0" d="M43.6,262.8c2.8-8.9,6.2-27,14.1-43C96.1,142.4,155.4,86.1,234.6,52c15.3-6.6,33.5-8.7,50.4-8.8
		c21.1-0.1,35.2,14.6,37.1,35.9c1,11.1,0.8,23.4-3,33.6C281.6,213,210.8,280.3,111.2,318c-3.9,1.5-8.2,1.9-12.4,2.4
		C64.9,325.1,43.1,305.9,43.6,262.8L43.6,262.8L43.6,262.8z M304.2,188.4c55-3.9,109.1-7.6,165.8-11.6c-4.1-3.9-6.5-6.5-9.2-8.7
		c-49.4-39.6-98.8-79-148-118.8c-4.9-3.9-7.9-10.1-14.4-18.8c21.1,0,38.2-0.2,55.3,0c20.6,0.3,41.7-1.7,61.7,2
		c43.3,8,66.4,35.9,65.6,79.9c-0.8,41.3-5,82.4-8.1,123.6c-4.7,63.1-9.6,126.1-14.4,189.2c-0.8,10.9-1.9,21.7-2.9,34.7
		c-22.9-20.4-44.8-39.9-66.6-59.4c-2.8-2.5-5.2-5.8-8.3-7.8c-26.7-17-37.9-42.4-43.9-72.7c-7.9-39.6-19.5-78.5-29.5-117.7
		C306.1,198.1,305.3,193.6,304.2,188.4L304.2,188.4L304.2,188.4z M97.8,429.6c11.8-1.6,22.8-2.3,33.3-5c4.1-1.1,8.9-6.1,10.3-10.3
		c9.9-31.3,19-62.9,28.4-94.4c0.8-2.8,2-5.4,3.5-9.5c57.3,18.3,114.2,36.6,172.7,55.3c-30.5,30.7-62.9,56.5-99.1,79.7
		c64.5,4.9,129.1,9.9,193.6,14.8c0,0.8,0,1.7,0,2.5c-13.9,1-27.8,2-41.7,2.9c-82.1,5.4-164.1,10.8-246.2,16.1
		c-13,0.9-26.1,2.3-39.1,2c-55.3-1-86.6-31.3-87.3-86.7c-0.4-31.1,2.8-62.3,4.8-93.4c0.2-2.3,3.5-4.5,5.4-6.7
		c2.8,2.5,6.8,4.4,8.2,7.5c16.5,38.2,32.6,76.7,48.8,115C94.6,422.4,96,425.4,97.8,429.6L97.8,429.6L97.8,429.6z"/>
</g>
</svg>
